External Loads File
version=1
nRows=92
nColumns=13
Range=5.000000e-03-10 seconds
endheader
time 	forceRightX 	forceRightY 	forceRightZ 	pointRightX 	pointRightY 	pointRightZ 	forceLeftX 	forceLeftY 	forceLeftZ 	pointLeftX 	pointLeftY 	pointLeftZ 		
2.505000 -106.179259 -138.188469 -0.000000 0.111883 0.408917 -0.125508 -38.588743 739.205344 -0.000000 0.291163 0.204329 -0.366670
2.510000 -114.024001 -141.310185 -0.000000 0.117347 0.415894 -0.125870 -21.140045 727.604221 -0.000000 0.286626 0.197702 -0.366648
2.515000 -120.499406 -142.502424 -0.000000 0.123093 0.422489 -0.126117 -5.281266 714.066102 -0.000000 0.281784 0.191378 -0.366607
2.520000 -125.021799 -142.029029 -0.000000 0.128097 0.428676 -0.127366 6.798658 698.959642 -0.000000 0.276686 0.185450 -0.366632
2.525000 -128.333327 -139.295456 -0.000000 0.134271 0.434590 -0.127432 19.155755 682.615725 -0.000000 0.271419 0.180012 -0.366624
2.530000 -130.458923 -134.554623 -0.000000 0.141336 0.440206 -0.126806 31.789676 665.250770 -0.000000 0.265815 0.175077 -0.366549
2.535000 -130.909333 -128.798753 -0.000000 0.147863 0.445246 -0.127345 41.795806 647.241167 -0.000000 0.259905 0.170659 -0.366501
2.540000 -130.414450 -121.955341 -0.000000 0.154816 0.450192 -0.127437 52.023540 628.629598 -0.000000 0.253636 0.166693 -0.366453
2.545000 -128.821482 -114.832322 -0.000000 0.161425 0.454820 -0.128141 60.646843 609.626713 -0.000000 0.247230 0.163114 -0.366316
2.550000 -126.707616 -107.378795 -0.000000 0.168380 0.459001 -0.128432 69.365010 590.026089 -0.000000 0.240611 0.159854 -0.366135
2.555000 -124.360256 -99.707805 -0.000000 0.175584 0.462854 -0.128688 78.344871 569.550361 -0.000000 0.233706 0.156922 -0.366256
2.560000 -121.946454 -91.921188 -0.000000 0.182872 0.466346 -0.128844 87.149579 547.835185 -0.000000 0.226636 0.154324 -0.366021
2.565000 -119.552546 -84.040220 -0.000000 0.189979 0.469451 -0.129005 95.102820 524.442731 -0.000000 0.219543 0.152090 -0.365614
2.570000 -117.475440 -75.576075 -0.000000 0.197325 0.472120 -0.129086 103.305134 498.526664 -0.000000 0.212132 0.150256 -0.365399
2.575000 -115.624561 -66.436031 -0.000000 0.204675 0.474307 -0.129134 110.893252 469.578437 -0.000000 0.204560 0.148854 -0.365220
2.580000 -113.973358 -56.404686 -0.000000 0.212098 0.476128 -0.129145 117.602242 437.165592 -0.000000 0.196885 0.147895 -0.365080
2.585000 -112.424537 -45.388902 -0.000000 0.219479 0.477308 -0.129161 122.842698 401.274669 -0.000000 0.189199 0.147388 -0.364920
2.590000 -110.910027 -33.229643 -0.000000 0.226895 0.478209 -0.129068 126.480265 362.175997 -0.000000 0.181431 0.147340 -0.364789
2.595000 -109.312936 -19.869834 -0.000000 0.234226 0.478509 -0.128886 128.198802 320.543166 -0.000000 0.173555 0.147756 -0.364495
2.600000 -107.510847 -5.369578 -0.000000 0.241409 0.478402 -0.128604 127.502039 277.414700 -0.000000 0.165917 0.148636 -0.364243
2.605000 -105.440733 10.467869 -0.000000 0.248370 0.477845 -0.128341 124.674521 233.719620 -0.000000 0.158245 0.149975 -0.364110
2.610000 -103.038145 27.825380 -0.000000 0.255147 0.476769 -0.128188 119.883694 190.547915 -0.000000 0.150657 0.151768 -0.363862
2.615000 -100.301278 46.888363 -0.000000 0.261559 0.475352 -0.127707 113.357927 149.037740 -0.000000 0.143200 0.154006 -0.363553
2.620000 -97.231563 68.045816 -0.000000 0.267445 0.473042 -0.127338 105.691709 110.065926 -0.000000 0.135807 0.156679 -0.363272
2.625000 -93.817499 91.782904 -0.000000 0.273003 0.470095 -0.126764 97.465934 74.371783 -0.000000 0.128501 0.159769 -0.362948
2.630000 -90.250686 118.529298 -0.000000 0.278205 0.467630 -0.126467 89.121734 42.713149 -0.000000 0.121306 0.163258 -0.362610
2.635000 -86.531444 149.086581 -0.000000 0.282940 0.464362 -0.126018 81.234190 15.413418 -0.000000 0.114213 0.167124 -0.362543
2.640000 -83.085492 184.093960 -0.000000 0.287228 0.461009 -0.125866 74.125451 -7.125666 -0.000000 0.107408 0.171352 -0.362186
2.645000 -80.510294 224.252163 -0.000000 0.291061 0.457979 -0.125554 68.081839 -24.768147 -0.000000 0.100875 0.175926 -0.361741
2.650000 -78.853230 270.318112 -0.000000 0.294237 0.453441 -0.125347 63.197904 -37.825579 -0.000000 0.094665 0.180769 -0.361347
2.655000 -79.270309 322.246713 -0.000000 0.297014 0.449215 -0.125112 59.609632 -46.595697 -0.000000 0.088653 0.185889 -0.361114
2.660000 -82.984794 379.399515 -0.000000 0.299506 0.445625 -0.124507 57.433908 -51.740603 -0.000000 0.082886 0.191299 -0.360951
2.665000 -87.344938 441.117936 -0.000000 0.301884 0.438664 -0.124041 56.248531 -54.606672 -0.000000 0.077291 0.197009 -0.360782
2.670000 -94.547583 504.845289 -0.000000 0.304980 0.432425 -0.124222 56.306913 -55.762576 -0.000000 0.071812 0.203021 -0.360564
2.675000 -103.634940 568.059657 -0.000000 0.308079 0.425598 -0.123937 57.373478 -56.115748 -0.000000 0.066520 0.209551 -0.360419
2.680000 -113.501076 627.885365 -0.000000 0.311421 0.418267 -0.123528 59.114700 -56.290650 -0.000000 0.061552 0.216568 -0.360111
2.685000 -123.522671 681.411965 -0.000000 0.314395 0.410324 -0.123242 61.159559 -56.523985 -0.000000 0.057036 0.224029 -0.359854
2.690000 -132.737718 726.262574 -0.000000 0.317282 0.402173 -0.122676 63.114550 -56.772865 -0.000000 0.052954 0.231891 -0.359583
2.695000 -141.013014 760.703842 -0.000000 0.320219 0.394117 -0.120999 64.775571 -56.752524 -0.000000 0.049378 0.240039 -0.359386
2.700000 -148.489407 783.916275 -0.000000 0.322794 0.385895 -0.121962 66.132787 -56.183061 -0.000000 0.046284 0.248135 -0.359213
2.705000 -154.238396 796.234760 -0.000000 0.325665 0.377381 -0.122444 67.272102 -55.009788 -0.000000 0.043660 0.256083 -0.358950
2.710000 -159.799403 798.283216 -0.000000 0.328254 0.368850 -0.122315 68.561111 -53.095032 -0.000000 0.041746 0.263872 -0.358514
2.715000 -165.319004 791.453039 -0.000000 0.330686 0.360324 -0.122437 70.273077 -50.481525 -0.000000 0.040970 0.271487 -0.358107
2.720000 -167.442971 778.212327 -0.000000 0.332881 0.351635 -0.122786 72.387093 -47.553502 -0.000000 0.037917 0.279140 -0.358853
2.725000 -168.096441 760.126849 -0.000000 0.334775 0.342748 -0.122961 75.087123 -44.257520 -0.000000 0.036254 0.287121 -0.358594
2.730000 -166.286672 739.391254 -0.000000 0.336128 0.333718 -0.122845 78.222539 -40.847370 -0.000000 0.035607 0.295636 -0.358937
2.735000 -161.914681 717.863550 -0.000000 0.337040 0.324709 -0.122877 81.586907 -37.565953 -0.000000 0.035437 0.304653 -0.359084
2.740000 -154.970686 697.079427 -0.000000 0.337531 0.315728 -0.122954 84.917935 -34.702390 -0.000000 0.035707 0.314096 -0.359230
2.745000 -145.591662 678.128697 -0.000000 0.337493 0.306693 -0.122965 87.938695 -32.541658 -0.000000 0.036492 0.323702 -0.359377
2.750000 -134.005882 661.634383 -0.000000 0.337134 0.297572 -0.123057 90.346033 -31.343228 -0.000000 0.037848 0.333209 -0.359476
2.755000 -121.285932 647.668002 -0.000000 0.335990 0.288790 -0.122844 91.803073 -31.234351 -0.000000 0.039732 0.342356 -0.359463
2.760000 -106.425611 636.433980 -0.000000 0.334202 0.279991 -0.123023 91.793659 -32.614057 -0.000000 0.042257 0.351130 -0.359647
2.765000 -89.487136 627.715210 -0.000000 0.331826 0.271340 -0.121952 89.825243 -35.688772 -0.000000 0.045414 0.359671 -0.360099
2.770000 -69.329502 621.297013 -0.000000 0.328981 0.262218 -0.123333 85.398376 -40.745677 -0.000000 0.049303 0.368055 -0.360770
2.775000 -47.307250 616.486336 -0.000000 0.325686 0.253121 -0.123418 78.308864 -47.614328 -0.000000 0.053714 0.376351 -0.360932
2.780000 -24.362325 612.663606 -0.000000 0.321955 0.244460 -0.123357 68.536885 -56.118396 -0.000000 0.058857 0.384628 -0.361309
2.785000 -1.018822 609.290586 -0.000000 0.317693 0.236012 -0.123310 56.178620 -66.088680 -0.000000 0.064330 0.392845 -0.361454
2.790000 19.964029 606.009399 -0.000000 0.313158 0.227747 -0.123175 41.676633 -77.168775 -0.000000 0.068964 0.400801 -0.358013
2.795000 42.122509 602.485378 -0.000000 0.308208 0.220192 -0.122924 24.748488 -89.483058 -0.000000 0.076603 0.408435 -0.361876
2.800000 62.020173 598.668044 -0.000000 0.302767 0.212347 -0.123515 6.023160 -102.602950 -0.000000 0.083553 0.415715 -0.361762
2.805000 78.542783 594.687869 -0.000000 0.297363 0.204801 -0.122919 -13.905294 -116.393667 -0.000000 0.090468 0.422616 -0.361752
2.810000 92.834583 590.439141 -0.000000 0.291562 0.197494 -0.122854 -34.687897 -130.691070 -0.000000 0.097717 0.429142 -0.361887
2.815000 104.861852 585.903288 -0.000000 0.285630 0.190479 -0.122698 -55.711017 -145.199711 -0.000000 0.105380 0.435372 -0.362012
2.820000 115.163958 580.912981 -0.000000 0.279394 0.183424 -0.122638 -76.467657 -159.441820 -0.000000 0.113162 0.441343 -0.362455
2.825000 123.378789 575.377790 -0.000000 0.273010 0.176881 -0.122493 -96.179157 -172.892131 -0.000000 0.121100 0.447064 -0.362259
2.830000 129.911694 568.997112 -0.000000 0.266230 0.171213 -0.122301 -114.212864 -184.807053 -0.000000 0.129034 0.452536 -0.362452
2.835000 135.490544 561.379074 -0.000000 0.259234 0.165669 -0.122098 -130.062986 -194.272018 -0.000000 0.136992 0.457750 -0.362445
2.840000 139.454113 552.524169 -0.000000 0.252209 0.160601 -0.121706 -142.843848 -200.752290 -0.000000 0.144799 0.462678 -0.362385
2.845000 142.729322 542.166756 -0.000000 0.244803 0.156069 -0.121566 -152.385125 -203.574333 -0.000000 0.152578 0.467281 -0.362368
2.850000 145.529930 530.285095 -0.000000 0.237317 0.151808 -0.121355 -158.491550 -202.521321 -0.000000 0.160515 0.471523 -0.362316
2.855000 147.700640 516.926368 -0.000000 0.229650 0.147759 -0.121221 -161.060492 -197.826330 -0.000000 0.168178 0.475370 -0.362629
2.860000 150.394311 501.649310 -0.000000 0.221714 0.144754 -0.121196 -160.737889 -189.595209 -0.000000 0.176153 0.478783 -0.362372
2.865000 153.158972 484.345664 -0.000000 0.213739 0.142215 -0.121150 -157.777571 -178.620229 -0.000000 0.184034 0.481731 -0.362666
2.870000 156.496954 464.542463 -0.000000 0.205637 0.141387 -0.121305 -152.996456 -165.503064 -0.000000 0.192030 0.484186 -0.362651
2.875000 160.380390 441.905547 -0.000000 0.197410 0.140142 -0.121246 -147.171245 -151.024549 -0.000000 0.200003 0.486132 -0.362821
2.880000 164.504246 416.271794 -0.000000 0.189080 0.139575 -0.121008 -141.028037 -135.962637 -0.000000 0.207961 0.487560 -0.363108
2.885000 168.197622 387.781676 -0.000000 0.180858 0.139008 -0.121056 -135.102492 -121.045000 -0.000000 0.215878 0.488466 -0.363545
2.890000 171.317977 356.564709 -0.000000 0.172734 0.139607 -0.121135 -129.956891 -106.584436 -0.000000 0.223839 0.488864 -0.363778
2.895000 172.963425 323.329589 -0.000000 0.164754 0.139800 -0.121220 -125.716211 -92.897429 -0.000000 0.231550 0.488760 -0.364118
2.900000 173.056285 288.642356 -0.000000 0.157051 0.141006 -0.121316 -122.512995 -79.771579 -0.000000 0.239054 0.488165 -0.364080
2.905000 171.513353 253.229257 -0.000000 0.149524 0.142538 -0.121395 -120.254201 -66.834200 -0.000000 0.246417 0.487088 -0.364476
2.910000 168.133659 218.026853 -0.000000 0.142365 0.144872 -0.121486 -118.689983 -53.709435 -0.000000 0.253402 0.485527 -0.364659
2.915000 163.014047 183.846365 -0.000000 0.135613 0.147345 -0.121453 -117.648880 -39.850145 -0.000000 0.260125 0.483448 -0.364807
2.920000 156.493271 151.285164 -0.000000 0.129089 0.150202 -0.121869 -117.113847 -24.469665 -0.000000 0.266537 0.480842 -0.365174
2.925000 148.819010 120.972295 -0.000000 0.122893 0.153492 -0.121942 -117.199954 -6.729032 -0.000000 0.272504 0.477679 -0.365450
2.930000 140.354042 93.336961 -0.000000 0.117034 0.157099 -0.122015 -118.225722 14.344992 -0.000000 0.277904 0.473926 -0.365475
2.935000 131.578937 68.431092 -0.000000 0.111412 0.161078 -0.122005 -120.625850 39.903039 -0.000000 0.282937 0.469567 -0.365655
2.940000 122.779683 46.331421 -0.000000 0.106125 0.165434 -0.121972 -124.878492 70.797257 -0.000000 0.287510 0.464617 -0.365843
2.945000 114.255310 26.811868 -0.000000 0.101106 0.170159 -0.122021 -131.299743 107.699411 -0.000000 0.291964 0.459063 -0.365803
2.950000 106.138960 9.785425 -0.000000 0.096215 0.175401 -0.122034 -140.093134 150.558127 -0.000000 0.295880 0.452916 -0.365896
2.955000 98.503409 -5.008283 -0.000000 0.091568 0.181120 -0.121987 -150.966835 198.923836 -0.000000 0.299970 0.446196 -0.365870
2.960000 91.330258 -17.501217 -0.000000 0.087288 0.187259 -0.121998 -163.954383 251.275302 -0.000000 0.303656 0.438919 -0.365882
